/* XPM */
static char * SA_icon_lut_off_xpm[] = {
"32 32 18 1",
" 	c None",
".	c #414141",
"+	c #000000",
"@	c #010101",
"#	c #404040",
"$	c #020202",
"%	c #080808",
"&	c #3C3C3C",
"*	c #3B3B3B",
"=	c #090909",
"-	c #1B1B1B",
";	c #282828",
">	c #272727",
",	c #1C1C1C",
"'	c #040404",
")	c #2C2C2C",
"!	c #3E3E3E",
"~	c #2B2B2B",
"................................",
"................................",
"................................",
"................................",
"................................",
"................................",
"................................",
"................................",
"................................",
"................................",
"..++......++......++.++++++++++.",
"..++......++......++.....++.....",
"..++......++......++.....++.....",
"..++......++......++.....++.....",
"..++......++......++.....++.....",
"..++......++......++.....++.....",
"..++......++......++.....++.....",
"..++......@+#....#+$.....++.....",
"..++......%+&....*+=.....++.....",
"..++......-+;....>+,.....++.....",
"..++......*%')!!~'%*.....++.....",
"..+++++++..&,=@@=,&......++.....",
"................................",
"................................",
"................................",
"................................",
"................................",
"................................",
"................................",
"................................",
"................................",
"................................"};
