/* XPM */
static char * SA_icon_ch_alpha_xpm[] = {
"32 32 31 1",
" 	c None",
".	c #0D0D0D",
"+	c #1D1D1D",
"@	c #474747",
"#	c #8C8C8C",
"$	c #C8C8C8",
"%	c #F6F6F6",
"&	c #FFFFFF",
"*	c #4E4E4E",
"=	c #505050",
"-	c #8D8D8D",
";	c #C3C3C3",
">	c #ECECEC",
",	c #353535",
"'	c #979797",
")	c #FCFCFC",
"!	c #9C9C9C",
"~	c #404040",
"{	c #F1F1F1",
"]	c #BFBFBF",
"^	c #BBBBBB",
"/	c #CACACA",
"(	c #5B5B5B",
"_	c #E1E1E1",
":	c #3F3F3F",
"<	c #292929",
"[	c #DADADA",
"}	c #696969",
"|	c #525252",
"1	c #B3B3B3",
"2	c #7E7E7E",
"                                ",
"       .......    +++++++       ",
"     .@#$%&%$#*++=-;>&>;-=+     ",
"    ,')&&&&&&&!~~!&&&&&&&{'~    ",
"   @]&&&&&&&&&&&&&&&&&&&&&&^=   ",
"  ,]&&&&&&&&&&&&&&&&&&&&&&&&^~  ",
" .'&&&&&&&&&&&&&&&&&&&&&&&&&&'+ ",
" @)&&&&&&&&&&&&&&&&&&&&&&&&&&{= ",
".#&&&&&&&&&&&&&&&&&&&&&&&&&&&&-+",
".$&&&&&&&&&&&&&&&&&&&&&&&&&&&&;+",
".%&&&&&&&&&&&&&&&&&&&&&&&&&&&&>+",
".&&&&&&&&&&&&&&&&&&&&&&&&&&&&&&+",
".%&&&&&&&&&&&&&&&&&&&&&&&&&&&&>+",
".$&&&&&&&&&&&&&&&&&&&&&&&&&&&&;+",
".#&&&&&&&&&&&&&&&&&&&&&&&&&&&&-+",
" @)&&&&&&&&&&&&&&&&&&&&&&&&&&{= ",
" .'&&&&&&&&&&&&&&&&&&&&&&&&&&'+ ",
"  ,]&&&&&&&&&&&&&&&&&&&&&&&&/~  ",
"   @](;&&&&&&&&&&&&&&&&&;&__=   ",
"    :<[&&&&&&&&&&&&&&&&&[+}~    ",
"     +|&&&&&&&&&&&&&&&&&=++     ",
"     +1&&&&&&&&&&&&&&&&&2+      ",
"     +;&&&&&&&&&&&&&&&&&;+      ",
"     +-&&&&&&&&&&&&&&&&&-+      ",
"      ={&&&&&&&&&&&&&&&{=       ",
"      +'&&&&&&&&&&&&&&&'+       ",
"       ~^&&&&&&&&&&&&&^~        ",
"        =^&&&&&&&&&&&^=         ",
"         ~'{&&&&&&&{'~          ",
"          +=-;>&>;-=+           ",
"            +++++++             ",
"                                "};
