/* XPM */
static char * SA_icon_continuous_off_xpm[] = {
"32 32 42 1",
" 	c None",
".	c #414141",
"+	c #3C3C3C",
"@	c #393939",
"#	c #3F3F3F",
"$	c #3A3A3A",
"%	c #373737",
"&	c #2D2D2D",
"*	c #3B3B3A",
"=	c #313131",
"-	c #2B2B2B",
";	c #2C2C2B",
">	c #323231",
",	c #404040",
"'	c #2D2D2C",
")	c #30302F",
"!	c #353535",
"~	c #383838",
"{	c #2C2C2C",
"]	c #323232",
"^	c #3E3E3E",
"/	c #2E2E2E",
"(	c #303030",
"_	c #404140",
":	c #3D3D3D",
"<	c #3B3B3B",
"[	c #353534",
"}	c #2F2F2F",
"|	c #2B2C2B",
"1	c #353635",
"2	c #383837",
"3	c #363636",
"4	c #333332",
"5	c #333333",
"6	c #343434",
"7	c #393A39",
"8	c #2E2E2D",
"9	c #3A3B3A",
"0	c #373736",
"a	c #363635",
"b	c #2F2F2E",
"c	c #303130",
"................................",
"................................",
"................................",
"................................",
"................................",
"................................",
"........+@...#$%%$#.............",
"........#&$*=-----;>$,..........",
"........#-&'-)!~~!)-{]^.........",
"........#--;%......$/-(,........",
"........^---/~_.....^]-=#.......",
"........#]]]>(:......#(;%.......",
"......,<,.............$-(#......",
"......<'[..............}|+......",
"......1-2..............~-3......",
"......4-:..............+-5......",
"......]-^..............:-]......",
"......6-*..............$-[......",
"......@-5..............=-7......",
"......^8;#.............9)^......",
"......,5-!,......^~@@@@,,.......",
".......:-|$......#};;;;^........",
"........7&-0^......5;--#........",
".........@';}a<^^<ab;--#........",
"..........:c'------']4;#........",
"...........,<35==53<,#5:........",
"..............,,,.....#^........",
"................................",
"................................",
"................................",
"................................",
"................................"};
