/* XPM */
static char * SA_icon_arrows_up_xpm[] = {
"12 12 3 1",
" 	c None",
".	c #030404",
"+	c #020303",
"     ..     ",
"    ++.+    ",
"   ++.+.+   ",
"  ++.  +.+  ",
" ++.    +.+ ",
" .+      +. ",
"     ++     ",
"    ++++    ",
"   +..+.+   ",
"  +.+  +.+  ",
" ...    +.+ ",
" .+      +. "};
