/* XPM */
static char * SA_icon_lut_on_xpm[] = {
"32 32 14 1",
" 	c None",
".	c #6B6B6B",
"+	c #000000",
"@	c #010101",
"#	c #020202",
"$	c #080808",
"%	c #090909",
"&	c #1B1B1B",
"*	c #282828",
"=	c #272727",
"-	c #1C1C1C",
";	c #040404",
">	c #2E2E2E",
",	c #2B2B2B",
"................................",
"................................",
"................................",
"................................",
"................................",
"................................",
"................................",
"................................",
"................................",
"................................",
"..++......++......++.++++++++++.",
"..++......++......++.....++.....",
"..++......++......++.....++.....",
"..++......++......++.....++.....",
"..++......++......++.....++.....",
"..++......++......++.....++.....",
"..++......++......++.....++.....",
"..++......@+......+#.....++.....",
"..++......$+......+%.....++.....",
"..++......&+*....=+-.....++.....",
"..++.......$;>..,;$......++.....",
"..+++++++...-%@@%-.......++.....",
"................................",
"................................",
"................................",
"................................",
"................................",
"................................",
"................................",
"................................",
"................................",
"................................"};
