/* XPM */
static char * SA_icon_play_xpm[] = {
"32 32 31 1",
" 	c None",
".	c #414141",
"+	c #727272",
"@	c #565656",
"#	c #7E7E7E",
"$	c #777777",
"%	c #5B5B5B",
"&	c #444444",
"*	c #7A7A7A",
"=	c #606060",
"-	c #474747",
";	c #7C7C7C",
">	c #656565",
",	c #4B4B4B",
"'	c #6B6B6B",
")	c #4F4F4F",
"!	c #717171",
"~	c #535353",
"{	c #424242",
"]	c #757575",
"^	c #7D7D7D",
"/	c #636363",
"(	c #7B7B7B",
"_	c #616161",
":	c #464646",
"<	c #5D5D5D",
"[	c #454545",
"}	c #797979",
"|	c #787878",
"1	c #595959",
"2	c #434343",
"................................",
"................................",
"................................",
"................................",
"................................",
"................................",
"................................",
"................................",
"................................",
".........+@.....................",
".........##$%&..................",
".........####*=-................",
".........######;>,..............",
".........#########')............",
".........###########!~{.........",
".........#############].........",
".........############^/.........",
".........##########(_:..........",
".........########*=:............",
".........######*<[..............",
".........####}<&................",
".........##|%&..................",
".........$12....................",
"................................",
"................................",
"................................",
"................................",
"................................",
"................................",
"................................",
"................................",
"................................"};
