/* XPM */
static char * SA_icon_exposure_xpm[] = {
"18 18 41 1",
" 	c None",
".	c #848484",
"+	c #A9A9A9",
"@	c #BABABA",
"#	c #B7B7B7",
"$	c #A7A7A7",
"%	c #BDBDBD",
"&	c #BCBCBC",
"*	c #9B9B9B",
"=	c #A2A2A2",
"-	c #8C8C8C",
";	c #A6A6A6",
">	c #707070",
",	c #878787",
"'	c #B6B6B6",
")	c #6A6A6A",
"!	c #3E3E3E",
"~	c #686868",
"{	c #7C7C7C",
"]	c #BBBBBB",
"^	c #717171",
"/	c #646464",
"(	c #787878",
"_	c #757575",
":	c #909090",
"<	c #A8A8A8",
"[	c #8A8A8A",
"}	c #AEAEAE",
"|	c #656565",
"1	c #5A5A5A",
"2	c #737373",
"3	c #8F8F8F",
"4	c #ACACAC",
"5	c #9C9C9C",
"6	c #A3A3A3",
"7	c #939393",
"8	c #9F9F9F",
"9	c #919191",
"0	c #888888",
"a	c #8E8E8E",
"b	c #8D8D8D",
"                  ",
"      .+@#$.      ",
"      +%%%%%&     ",
"   *=  -%%%%; >   ",
"  ,%%')!~'%%{ #,  ",
"  ]%%%%^  =% /%]  ",
" .%%%@(    _ :%%. ",
" <%%+        #%%< ",
" @%[        /%%%@ ",
" }| 12      3%%%# ",
"   {]4      56667 ",
"  8%%%            ",
"  ]%%%{ [999999:  ",
"  ,%%%$ 3%%%%%%0  ",
"   *%%% /%%%%%5   ",
"    0&%( #%%&0    ",
"      0a b$0      ",
"                  "};
