/* XPM */
static char * SA_icon_photo_xpm[] = {
"21 16 2 1",
" 	c None",
".	c #000000",
"       .......       ",
"      .........      ",
"      .........      ",
" ................... ",
".....................",
"........     ........",
".......       .......",
"......  ....   ......",
"......  .....  ......",
"......  .....  ......",
"......  .....  ......",
"......   ...   ......",
".......       .......",
"........     ........",
".....................",
" ................... "};
