/* XPM */
static char * SA_icon_delete_stored_xpm[] = {
"32 32 21 1",
" 	c None",
".	c #414141",
"+	c #282828",
"@	c #313131",
"#	c #2B2B2B",
"$	c #404040",
"%	c #3A3A3A",
"&	c #343434",
"*	c #3F3F3F",
"=	c #2C2C2C",
"-	c #2A2A2A",
";	c #3D3D3D",
">	c #303030",
",	c #292929",
"'	c #2F2F2F",
")	c #2D2D2D",
"!	c #373737",
"~	c #363636",
"{	c #323232",
"]	c #3B3B3B",
"^	c #2E2E2E",
"................................",
"................................",
"................................",
"................................",
"................................",
"................................",
"................................",
"................................",
"................................",
".........++++++++++++++.........",
".........++++++++++++++.........",
".........++++++++++++++.........",
"...............@#$..............",
"..............%++&..............",
".............*=++-;.............",
".............&++++>.............",
"............;,+++++%............",
"...........$'++++++)$...........",
"...........!++++++++~...........",
"..........*-++++++++,*..........",
"..........{++++++++++{..........",
".........%,++++++++++,].........",
".........=++++++++++++^.........",
"................................",
"................................",
"................................",
"................................",
"................................",
"................................",
"................................",
"................................",
"................................"};
