/* XPM */
static char * SA_icon_ch_red_xpm[] = {
"32 32 134 2",
"  	c None",
". 	c #0D0707",
"+ 	c #0D0303",
"@ 	c #0D0101",
"# 	c #0D0000",
"$ 	c #1D1D1D",
"% 	c #0D0606",
"& 	c #470101",
"* 	c #8C0000",
"= 	c #C80000",
"- 	c #F60000",
"; 	c #FF0000",
"> 	c #4E0101",
", 	c #1D0E0E",
"' 	c #505050",
") 	c #8D8D8D",
"! 	c #C3C3C3",
"~ 	c #ECECEC",
"{ 	c #FFFFFF",
"] 	c #351111",
"^ 	c #970000",
"/ 	c #FC0000",
"( 	c #9C0000",
"_ 	c #400000",
": 	c #401414",
"< 	c #9C9C9C",
"[ 	c #F1F1F1",
"} 	c #979797",
"| 	c #404040",
"1 	c #471818",
"2 	c #BF0000",
"3 	c #A40000",
"4 	c #5B0000",
"5 	c #BB0000",
"6 	c #5A1E1E",
"7 	c #A9A9A9",
"8 	c #BBBBBB",
"9 	c #351E1E",
"0 	c #B30000",
"a 	c #5A3232",
"b 	c #C8C8C8",
"c 	c #0D0D0D",
"d 	c #970C0C",
"e 	c #750000",
"f 	c #716F6F",
"g 	c #472A2A",
"h 	c #CB0000",
"i 	c #600000",
"j 	c #F10000",
"k 	c #523131",
"l 	c #C5C5C5",
"m 	c #8C2B2B",
"n 	c #8E0000",
"o 	c #8D0000",
"p 	c #8D2C2C",
"q 	c #8B8B8B",
"r 	c #C81818",
"s 	c #C30000",
"t 	c #C31717",
"u 	c #5A5A5A",
"v 	c #F60606",
"w 	c #270000",
"x 	c #7E0000",
"y 	c #5A0000",
"z 	c #340000",
"A 	c #1F0000",
"B 	c #8B0000",
"C 	c #B30404",
"D 	c #2C2C2C",
"E 	c #FF0606",
"F 	c #CE0000",
"G 	c #720000",
"H 	c #1B0000",
"I 	c #9A0404",
"J 	c #B3B3B3",
"K 	c #F61D1D",
"L 	c #A80000",
"M 	c #990000",
"N 	c #740E0E",
"O 	c #989898",
"P 	c #3B3B3B",
"Q 	c #858585",
"R 	c #C83E3E",
"S 	c #AB0000",
"T 	c #670000",
"U 	c #5E1D1D",
"V 	c #4D4D4D",
"W 	c #7E7E7E",
"X 	c #8C5353",
"Y 	c #640000",
"Z 	c #744545",
"` 	c #BEBEBE",
" .	c #474646",
"..	c #FC1414",
"+.	c #740000",
"@.	c #980000",
"#.	c #C50000",
"$.	c #FF1414",
"%.	c #747272",
"&.	c #272727",
"*.	c #975454",
"=.	c #BA0000",
"-.	c #550000",
";.	c #710000",
">.	c #FF8E8E",
",.	c #BCBCBC",
"'.	c #747474",
").	c #353535",
"!.	c #BF4040",
"~.	c #7B0000",
"{.	c #FF5555",
"].	c #CACACA",
"^.	c #474747",
"/.	c #BF3C3C",
"(.	c #A90000",
"_.	c #FF5050",
":.	c #EAEAEA",
"<.	c #E1E1E1",
"[.	c #3F3F3F",
"}.	c #291414",
"|.	c #DA0202",
"1.	c #9C0101",
"2.	c #713838",
"3.	c #DADADA",
"4.	c #696969",
"5.	c #524A4A",
"6.	c #8D4848",
"7.	c #C32E2E",
"8.	c #EC1010",
"9.	c #FF0202",
"0.	c #808080",
"a.	c #909090",
"b.	c #343434",
"c.	c #1F1F1F",
"                                                                ",
"              . + @ # @ + .         $ $ $ $ $ $ $               ",
"          % & * = - ; - = * > , $ ' ) ! ~ { ~ ! ) ' $           ",
"        ] ^ / ; ; ; ; ; ; ; ( _ : < { { { { { { { [ } |         ",
"      1 2 ; ; ; ; ; ; ; ; 3 4 5 5 6 7 { { { { { { { { 8 '       ",
"    9 2 ; ; ; ; ; ; ; ; 0 4 5 ; ; 5 a b { { { { { { { { 8 |     ",
"  c d ; ; ; ; ; ; ; ; ; e ^ ; ; ; ; d f { { { { { { { { { } $   ",
"  g / ; ; ; ; ; ; ; ; h i j ; ; ; ; j k l { { { { { { { { [ '   ",
"c m ; ; ; ; ; ; ; ; ; n o ; ; ; ; ; ; p q { { { { { { { { { ) $ ",
"c r ; ; ; ; ; ; ; ; ; 4 s ; ; ; ; ; ; t u { { { { { { { { { ! $ ",
"c v ; ; ; ; ; ; ; ; ; w x y z A z y B C D { { { { { { { { { ~ $ ",
"c E ; ; ; ; ; ; ; F G H ; ; ; ; ; ; ; I $ J { { { { { { { { { $ ",
"c K ; ; ; ; ; ; L i M z ; ; ; ; ; ; ; N O P Q { { { { { { { ~ $ ",
"c R ; ; ; ; ; S T 5 ; y ; ; ; ; ; ; ; U { 8 V W { { { { { { ! $ ",
"c X ; ; ; ; F Y 5 ; ; B ; ; ; ; ; ; ; Z { { 8 P ` { { { { { ) $ ",
"   ...; ; ; +.@.; ; ; #.( ; ; ; ; ; $.%.{ { { } &.[ { { { [ '   ",
"  c *.; ; =.-.j ; ; ; ; ;.; ; ; ; ; >.,.{ { { [ ' '.{ { { } $   ",
"    ).!.; B o ; ; ; ; ; = ~.; ; ; {.'.{ { { { { ) D { { ].|     ",
"      ^./.4 s ; ; ; ; ; ; (.^ ; _.O :.{ { { { { ! $ <.<.'       ",
"        [.}.|.; ; ; ; ; ; ; 1.2.'.'.{ { { { { { 3.$ 4.|         ",
"          $ 5.6.7.8.9.8.7.6.5.u 0.a.! ~ { ~ ! ) ' $ $           ",
"          $ J q u b.c.b.u q l { { l q u b.c.b.u W $             ",
"          $ ! { { { { { { { { { { { { { { { { { ! $             ",
"          $ ) { { { { { { { { { { { { { { { { { ) $             ",
"            ' [ { { { { { { { { { { { { { { { [ '               ",
"            $ } { { { { { { { { { { { { { { { } $               ",
"              | 8 { { { { { { { { { { { { { 8 |                 ",
"                ' 8 { { { { { { { { { { { 8 '                   ",
"                  | } [ { { { { { { { [ } |                     ",
"                    $ ' ) ! ~ { ~ ! ) ' $                       ",
"                        $ $ $ $ $ $ $                           ",
"                                                                "};
