/* XPM */
static char * SA_icon_ch_green_xpm[] = {
"32 32 127 2",
"  	c None",
". 	c #0D0D0D",
"+ 	c #1D1D1D",
"@ 	c #474747",
"# 	c #8C8C8C",
"$ 	c #C8C8C8",
"% 	c #F6F6F6",
"& 	c #FFFFFF",
"* 	c #4E4E4E",
"= 	c #385038",
"- 	c #398D39",
"; 	c #24C324",
"> 	c #0DEC0D",
", 	c #02FF02",
"' 	c #353535",
") 	c #979797",
"! 	c #FCFCFC",
"~ 	c #9C9C9C",
"{ 	c #2B402B",
"] 	c #0C400C",
"^ 	c #009C00",
"/ 	c #00FF00",
"( 	c #00F100",
"_ 	c #1C971C",
": 	c #BFBFBF",
"< 	c #A4A4A4",
"[ 	c #285B28",
"} 	c #00BB00",
"| 	c #005A00",
"1 	c #00A900",
"2 	c #235023",
"3 	c #B3B3B3",
"4 	c #245B24",
"5 	c #00C800",
"6 	c #1A401A",
"7 	c #427542",
"8 	c #009700",
"9 	c #007100",
"0 	c #101D10",
"a 	c #BECBBE",
"b 	c #056005",
"c 	c #005200",
"d 	c #00C500",
"e 	c #045004",
"f 	c #4C8E4C",
"g 	c #008D00",
"h 	c #008B00",
"i 	c #165B16",
"j 	c #00C300",
"k 	c #071D07",
"l 	c #032703",
"m 	c #007E00",
"n 	c #003400",
"o 	c #001F00",
"p 	c #00B300",
"q 	c #002C00",
"r 	c #00EC00",
"s 	c #021D02",
"t 	c #CECECE",
"u 	c #727272",
"v 	c #001B00",
"w 	c #009A00",
"x 	c #001D00",
"y 	c #A8A8A8",
"z 	c #606060",
"A 	c #999999",
"B 	c #043404",
"C 	c #007400",
"D 	c #009800",
"E 	c #003B00",
"F 	c #008500",
"G 	c #ABABAB",
"H 	c #676767",
"I 	c #BBBBBB",
"J 	c #165A16",
"K 	c #005E00",
"L 	c #004D00",
"M 	c #646464",
"N 	c #4B8B4B",
"O 	c #00BE00",
"P 	c #747474",
"Q 	c #989898",
"R 	c #B9C5B9",
"S 	c #089C08",
"T 	c #002700",
"U 	c #BABABA",
"V 	c #555555",
"W 	c #F1F1F1",
"X 	c #3F713F",
"Y 	c #00BC00",
"Z 	c #005000",
"` 	c #8B8B8B",
" .	c #8D8D8D",
"..	c #317B31",
"+.	c #00CA00",
"@.	c #5B5B5B",
"#.	c #C3C3C3",
"$.	c #A9A9A9",
"%.	c #429742",
"&.	c #00EA00",
"*.	c #00E100",
"=.	c #3F3F3F",
"-.	c #292929",
";.	c #DADADA",
">.	c #4C714C",
",.	c #167416",
"'.	c #00DA00",
").	c #146914",
"!.	c #525252",
"~.	c #ECECEC",
"{.	c #5A5A5A",
"].	c #808080",
"^.	c #669066",
"/.	c #4FC34F",
"(.	c #2BEC2B",
"_.	c #0EFF0E",
":.	c #02EC02",
"<.	c #0BC30B",
"[.	c #1A8D1A",
"}.	c #205020",
"|.	c #141D14",
"1.	c #343434",
"2.	c #1F1F1F",
"3.	c #C5C5C5",
"4.	c #7E7E7E",
"5.	c #505050",
"6.	c #404040",
"                                                                ",
"              . . . . . . .         + + + + + + +               ",
"          . @ # $ % & % $ # * + + = - ; > , > ; - = +           ",
"        ' ) ! & & & & & & & ~ { ] ^ / / / / / / / ( _ {         ",
"      @ : & & & & & & & & < [ } } | 1 / / / / / / / / } 2       ",
"    ' : & & & & & & & & 3 4 } / / } | 5 / / / / / / / / } 6     ",
"  . ) & & & & & & & & & 7 8 / / / / 8 9 / / / / / / / / / 8 0   ",
"  @ ! & & & & & & & & a b ( / / / / ( c d / / / / / / / / ( e   ",
". # & & & & & & & & & f g / / / / / / g h / / / / / / / / / g 0 ",
". $ & & & & & & & & & i j / / / / / / j | / / / / / / / / / j k ",
". % & & & & & & & & & l m | n o n | h p q / / / / / / / / / r s ",
". & & & & & & & & t u v / / / / / / / w x p / / / / / / / / / x ",
". % & & & & & & y z A B / / / / / / / C D E F / / / / / / / r s ",
". $ & & & & & G H I & J / / / / / / / K / } L m / / / / / / j k ",
". # & & & & t M I & & N / / / / / / / C / / } E O / / / / / g 0 ",
"  @ ! & & & P Q & & & R S / / / / / / C / / / 8 T ( / / / ( e   ",
"  . ) & & U V W & & & & X / / / / / / Y / / / ( Z C / / / 8 0   ",
"    ' : & `  .& & & & & $ ../ / / / C / / / / / g q / / +.6     ",
"      @ : @.#.& & & & & & $.%./ / D &./ / / / / j x *.*.2       ",
"        =.-.;.& & & & & & & ~ >.,.C / / / / / / '.x ).{         ",
"          + !. .#.~.& ~.#. .!.{.].^./.(._.:.<.[.}.|.+           ",
"          + 3 ` {.1.2.1.{.` 3.& & 3.` {.1.2.1.{.4.+             ",
"          + #.& & & & & & & & & & & & & & & & & #.+             ",
"          +  .& & & & & & & & & & & & & & & & &  .+             ",
"            5.W & & & & & & & & & & & & & & & W 5.              ",
"            + ) & & & & & & & & & & & & & & & ) +               ",
"              6.I & & & & & & & & & & & & & I 6.                ",
"                5.I & & & & & & & & & & & I 5.                  ",
"                  6.) W & & & & & & & W ) 6.                    ",
"                    + 5. .#.~.& ~.#. .5.+                       ",
"                        + + + + + + +                           ",
"                                                                "};
