/* XPM */
static char * SA_icon_ch_rgba_xpm[] = {
"32 32 149 2",
"  	c None",
". 	c #242424",
"+ 	c #551C1C",
"@ 	c #8F1212",
"# 	c #C10A0A",
"$ 	c #E70404",
"% 	c #FC0000",
"& 	c #1C551C",
"* 	c #128F12",
"= 	c #0AC10A",
"- 	c #04E704",
"; 	c #00FC00",
"> 	c #461E1E",
", 	c #981111",
"' 	c #EB0303",
") 	c #FF0000",
"! 	c #9D1010",
"~ 	c #45321F",
"{ 	c #31451F",
"] 	c #109D10",
"^ 	c #00FF00",
"/ 	c #03EB03",
"( 	c #119811",
"_ 	c #1E461E",
": 	c #BA0B0B",
"< 	c #A90E0E",
"[ 	c #5F4F1A",
"} 	c #BABA0B",
"| 	c #4B5F1A",
"1 	c #0EA90E",
"2 	c #0BBA0B",
"3 	c #C60909",
"4 	c #5E3D1A",
"5 	c #FFFF00",
"6 	c #385E1A",
"7 	c #09C609",
"8 	c #741717",
"9 	c #989811",
"0 	c #177417",
"a 	c #C20A0A",
"b 	c #57551C",
"c 	c #EBEB03",
"d 	c #55571C",
"e 	c #0AC20A",
"f 	c #8B1313",
"g 	c #8F8F12",
"h 	c #138B13",
"i 	c #5D1B1B",
"j 	c #C1C10A",
"k 	c #1B5D1B",
"l 	c #342121",
"m 	c #808015",
"n 	c #5D5D1B",
"o 	c #3A3A20",
"p 	c #272724",
"q 	c #8B8B13",
"r 	c #B1B10D",
"s 	c #213421",
"t 	c #252425",
"u 	c #8E8E8E",
"v 	c #C1C1C1",
"w 	c #E7E7E7",
"x 	c #FCFCFC",
"y 	c #8F8F8F",
"z 	c #555654",
"A 	c #0CB30C",
"B 	c #5E1A3D",
"C 	c #981198",
"D 	c #392139",
"E 	c #FFFFFF",
"F 	c #D6D6D6",
"G 	c #119898",
"H 	c #1F4242",
"I 	c #138813",
"J 	c #00FD00",
"K 	c #5F1A4F",
"L 	c #BA0BBA",
"M 	c #FF00FF",
"N 	c #5D1B5D",
"O 	c #00FFFF",
"P 	c #0BBABA",
"Q 	c #1D5252",
"R 	c #157F15",
"S 	c #8B138B",
"T 	c #8E9696",
"U 	c #0BBB0B",
"V 	c #C20AC2",
"W 	c #575557",
"X 	c #EBEBEB",
"Y 	c #4B8E8E",
"Z 	c #222E22",
"` 	c #04EA04",
" .	c #571C55",
"..	c #EB03EB",
"+.	c #741774",
"@.	c #989898",
"#.	c #979C9C",
"$.	c #03EBEB",
"%.	c #1C5555",
"&.	c #167716",
"*.	c #8F128F",
"=.	c #C609C6",
"-.	c #543F54",
";.	c #BABABA",
">.	c #339C9C",
",.	c #128F8F",
"'.	c #213321",
").	c #09C709",
"!.	c #C10AC1",
"~.	c #A90EA9",
"{.	c #585058",
"].	c #498686",
"^.	c #0AC1C1",
"/.	c #05DE05",
"(.	c #06DD06",
"_.	c #302222",
":.	c #D607D6",
"<.	c #9D109D",
"[.	c #3E3F4C",
"}.	c #268D8D",
"|.	c #07D6D6",
"1.	c #186D18",
"2.	c #541C56",
"3.	c #E704E7",
"4.	c #FC00FC",
"5.	c #551C57",
"6.	c #1A1A5F",
"7.	c #144D83",
"8.	c #128F90",
"9.	c #04E7E7",
"0.	c #00FCFC",
"a.	c #1C5454",
"b.	c #0D0DB1",
"c.	c #13138B",
"d.	c #1B1B5D",
"e.	c #20203A",
"f.	c #242427",
"g.	c #0A0AC2",
"h.	c #0000FF",
"i.	c #151580",
"j.	c #0A0AC1",
"k.	c #12128F",
"l.	c #1C1C55",
"m.	c #0303EB",
"n.	c #111198",
"o.	c #1E1E46",
"p.	c #0B0BBA",
"q.	c #0404E7",
"r.	c #0000FC",
"                                                                ",
"              . . . . . . .         . . . . . . .               ",
"          . + @ # $ % $ # @ + . . & * = - ; - = * & .           ",
"        > , ' ) ) ) ) ) ) ) ! ~ { ] ^ ^ ^ ^ ^ ^ ^ / ( _         ",
"      + : ) ) ) ) ) ) ) ) < [ } } | 1 ^ ^ ^ ^ ^ ^ ^ ^ 2 &       ",
"    > : ) ) ) ) ) ) ) ) 3 4 } 5 5 } 6 7 ^ ^ ^ ^ ^ ^ ^ ^ 2 _     ",
"  . , ) ) ) ) ) ) ) ) ) 8 9 5 5 5 5 9 0 ^ ^ ^ ^ ^ ^ ^ ^ ^ ( .   ",
"  + ' ) ) ) ) ) ) ) ) a b c 5 5 5 5 c d e ^ ^ ^ ^ ^ ^ ^ ^ / &   ",
". @ ) ) ) ) ) ) ) ) ) f g 5 5 5 5 5 5 g h ^ ^ ^ ^ ^ ^ ^ ^ ^ * . ",
". # ) ) ) ) ) ) ) ) ) i j 5 5 5 5 5 5 j k ^ ^ ^ ^ ^ ^ ^ ^ ^ = . ",
". $ ) ) ) ) ) ) ) ) ) l m n o p o n q r s ^ ^ ^ ^ ^ ^ ^ ^ ^ - . ",
". % ) ) ) ) ) ) ) 3 8 t u v w x w v y z . A ^ ^ ^ ^ ^ ^ ^ ^ ; . ",
". $ ) ) ) ) ) ) < B C D w E E E E E E F G H I J ^ ^ ^ ^ ^ ^ - . ",
". # ) ) ) ) ) < K L M N v E E E E E E v O P Q R ^ ^ ^ ^ ^ ^ = . ",
". @ ) ) ) ) 3 B L M M S y E E E E E E T O O P H U ^ ^ ^ ^ ^ * . ",
"  + ' ) ) ) 8 C M M M V W X E E E E X Y O O O G Z ` ^ ^ ^ / &   ",
"  . , ) ) a  ...M M M M +.@.E E E E #.O O O O $.%.&.^ ^ ^ ( .   ",
"    > : ) f *.M M M M M =.-.;.E E ;.>.O O O O O ,.'.J ^ )._     ",
"      + : i !.M M M M M M ~.{.;.;.].O O O O O O ^.. /.(.&       ",
"        > _.:.M M M M M M M <.[.}.O O O O O O O |.. 1._         ",
"          . 2.*.!.3.4.3.!.*.5.6.7.8.^.9.0.9.^.,.a.. .           ",
"          . b.c.d.e.f.e.d.c.g.h.h.g.c.d.e.f.e.d.i..             ",
"          . j.h.h.h.h.h.h.h.h.h.h.h.h.h.h.h.h.h.j..             ",
"          . k.h.h.h.h.h.h.h.h.h.h.h.h.h.h.h.h.h.k..             ",
"            l.m.h.h.h.h.h.h.h.h.h.h.h.h.h.h.h.m.l.              ",
"            . n.h.h.h.h.h.h.h.h.h.h.h.h.h.h.h.n..               ",
"              o.p.h.h.h.h.h.h.h.h.h.h.h.h.h.p.o.                ",
"                l.p.h.h.h.h.h.h.h.h.h.h.h.p.l.                  ",
"                  o.n.m.h.h.h.h.h.h.h.m.n.o.                    ",
"                    . l.k.j.q.r.q.j.k.l..                       ",
"                        . . . . . . .                           ",
"                                                                "};
