/* XPM */
static char * SA_icon_3d_on_xpm[] = {
"32 32 215 2",
"  	c None",
". 	c #676767",
"+ 	c #686A6A",
"@ 	c #6B6E6E",
"# 	c #6D7070",
"$ 	c #778081",
"% 	c #808F8F",
"& 	c #859798",
"* 	c #869999",
"= 	c #819192",
"- 	c #757D7E",
"; 	c #686869",
"> 	c #737A7B",
", 	c #7D8B8C",
"' 	c #869A9B",
") 	c #889D9E",
"! 	c #899E9F",
"~ 	c #8A9FA0",
"{ 	c #899D9E",
"] 	c #889C9D",
"^ 	c #7E8C8D",
"/ 	c #6F7474",
"( 	c #727677",
"_ 	c #808A8B",
": 	c #8B9B9D",
"< 	c #91A4A6",
"[ 	c #90A3A5",
"} 	c #8FA2A4",
"| 	c #8EA1A3",
"1 	c #8DA1A2",
"2 	c #8CA0A2",
"3 	c #8CA0A1",
"4 	c #8BA0A1",
"5 	c #788282",
"6 	c #6A6C6C",
"7 	c #676868",
"8 	c #636A70",
"9 	c #818F93",
"0 	c #95A6A8",
"a 	c #9AACAE",
"b 	c #9EB1B2",
"c 	c #9CAEB0",
"d 	c #9BADAF",
"e 	c #9AACAD",
"f 	c #98ABAD",
"g 	c #97AAAC",
"h 	c #97AAAB",
"i 	c #95A8A9",
"j 	c #94A7A8",
"k 	c #92A6A7",
"l 	c #92A5A7",
"m 	c #91A4A5",
"n 	c #8FA3A5",
"o 	c #8EA2A4",
"p 	c #8DA2A3",
"q 	c #829091",
"r 	c #72797A",
"s 	c #676869",
"t 	c #5A6167",
"u 	c #5A636B",
"v 	c #5F6870",
"w 	c #79858B",
"x 	c #919FA3",
"y 	c #A1B1B4",
"z 	c #ABBCBE",
"A 	c #A9BABC",
"B 	c #A7B7B9",
"C 	c #A5B6B8",
"D 	c #A3B5B7",
"E 	c #A2B3B5",
"F 	c #A1B2B4",
"G 	c #9FB2B3",
"H 	c #9FB1B2",
"I 	c #9EB0B2",
"J 	c #9DAFB0",
"K 	c #91A3A7",
"L 	c #8C9FA3",
"M 	c #85989D",
"N 	c #77898F",
"O 	c #667176",
"P 	c #5E666B",
"Q 	c #616C73",
"R 	c #5E676F",
"S 	c #575F67",
"T 	c #596169",
"U 	c #6E787F",
"V 	c #889499",
"W 	c #A3B1B4",
"X 	c #B7C7C9",
"Y 	c #B3C4C6",
"Z 	c #B1C1C3",
"` 	c #B1C2C3",
" .	c #AABBBD",
"..	c #9FB0B4",
"+.	c #94A5AA",
"@.	c #8A9CA2",
"#.	c #82949B",
"$.	c #7A8C94",
"%.	c #72858E",
"&.	c #6D808A",
"*.	c #64757E",
"=.	c #5E686F",
"-.	c #666666",
";.	c #60696D",
">.	c #657177",
",.	c #636D73",
"'.	c #596269",
").	c #525A62",
"!.	c #545C64",
"~.	c #646D74",
"{.	c #798489",
"].	c #9CAAAD",
"^.	c #B3C3C5",
"/.	c #A8B8BC",
"(.	c #9AABB0",
"_.	c #8C9DA4",
":.	c #7B8D95",
"<.	c #74878F",
"[.	c #6F828B",
"}.	c #6E818B",
"|.	c #70838C",
"1.	c #6F828C",
"2.	c #66767F",
"3.	c #5E696F",
"4.	c #636D71",
"5.	c #69757B",
"6.	c #667278",
"7.	c #626C73",
"8.	c #5E676E",
"9.	c #5A626A",
"0.	c #555D65",
"a.	c #515961",
"b.	c #5B646C",
"c.	c #6E7C84",
"d.	c #788B94",
"e.	c #74868F",
"f.	c #677074",
"g.	c #6E7A80",
"h.	c #6A767C",
"i.	c #667078",
"j.	c #5D676E",
"k.	c #535B63",
"l.	c #637079",
"m.	c #71858E",
"n.	c #727E84",
"o.	c #707C82",
"p.	c #657077",
"q.	c #616B72",
"r.	c #5D666D",
"s.	c #737F85",
"t.	c #748086",
"u.	c #6F7B81",
"v.	c #656F76",
"w.	c #5C656C",
"x.	c #555E66",
"y.	c #63717A",
"z.	c #6E7B80",
"A.	c #5D656D",
"B.	c #59626A",
"C.	c #64737B",
"D.	c #68747A",
"E.	c #606B71",
"F.	c #67757D",
"G.	c #71848D",
"H.	c #5F696F",
"I.	c #646F75",
"J.	c #68777F",
"K.	c #5F6970",
"L.	c #616A6F",
"M.	c #6D797F",
"N.	c #646F76",
"O.	c #6A7981",
"P.	c #636668",
"Q.	c #677177",
"R.	c #6C787E",
"S.	c #68747B",
"T.	c #6B7B83",
"U.	c #70848D",
"V.	c #666767",
"W.	c #676D71",
"X.	c #6B757C",
"Y.	c #6D7C85",
"Z.	c #67696B",
"`.	c #6A7277",
" +	c #6E797F",
".+	c #6F7F87",
"++	c #6F8189",
"@+	c #6D7E87",
"#+	c #667279",
"$+	c #63686A",
"%+	c #686D6F",
"&+	c #6B757A",
"*+	c #718189",
"=+	c #6E7F87",
"-+	c #6D7C83",
";+	c #6C767C",
">+	c #697073",
",+	c #67696A",
"'+	c #696F72",
")+	c #6D777D",
"!+	c #717E84",
"~+	c #72828A",
"{+	c #6E7D84",
"]+	c #6C787D",
"^+	c #6A7276",
"/+	c #696D6F",
"(+	c #676A6B",
"_+	c #6B7376",
":+	c #6F7E84",
"<+	c #6D7B83",
"[+	c #6B7478",
"}+	c #696F71",
"|+	c #686B6C",
"1+	c #676768",
"2+	c #686A6B",
". . . . . . . . . . . . . . . . . . . . . . . . . . . . . . . . ",
". . . . . . . . . . . . . . . . . . . . . . . . . . . . . . . . ",
". . . . . . . . . . . . . . . . . . . . . . . . . . . . . . . . ",
". . . . . . . . . . . . . . . . . . . . . . . . . . . . . . . . ",
". . . . . . . . . . . . . . . . . . . . . . . . . . . . . . . . ",
". . . . . . . . . . . . . . . . . . . . . . . . . . . . . . . . ",
". . . . . . . . . . . . . . . . + @ . . . . . . . . . . . . . . ",
". . . . . . . . . . . . . # $ % & * = - ; . . . . . . . . . . . ",
". . . . . . . . . + > , ' ) ! ! ~ ~ ~ { ] ^ / . . . . . . . . . ",
". . . . . . ( _ : < [ } | 1 2 3 4 4 ~ ~ ~ ~ ~ & 5 6 7 . . . . . ",
". . . . . 8 9 0 a b c d e f g h i j k l m n } o | p q r s . . . ",
". . . . . t u v w x y z A B C D E F G H b I J g K L M N O . . . ",
". . . . . P Q R S T U V W X Y Z Z Z `  ...+.@.#.$.%.&.*.=.-.. . ",
". . . . . ;.>.,.=.'.).!.~.{.].^./.(._.#.:.<.[.}.[.|.1.2.3.-.. . ",
". . . . . 4.5.6.7.8.9.0.a.).b.c.d.e.|.[.[.|.|.|.|.|.1.2.3.-.. . ",
". . . . . f.g.h.i.7.j.9.0.).k.l.m.|.|.|.|.|.|.|.|.|.1.2.3.-.. . ",
". . . . . f.n.o.h.p.q.r.'.0.k.l.m.|.|.|.|.|.|.|.|.|.1.2.3.-.. . ",
". . . . . f.s.t.u.5.v.q.w.T x.y.m.|.|.|.|.|.|.|.|.|.1.2.3.-.. . ",
". . . . . f.s.t.t.z.5.v.q.A.B.C.m.|.|.|.|.|.|.|.|.|.1.2.3.-.. . ",
". . . . . f.s.t.t.s.g.D.v.E.j.F.G.|.|.|.|.|.|.|.|.|.1.2.H.. . . ",
". . . . . f.s.t.t.t.s.g.D.I.q.J.G.|.|.|.|.|.|.|.|.|.1.2.K.. . . ",
". . . . . L.g.t.t.t.t.n.M.D.N.O.G.|.|.|.|.|.|.|.|.|.1.2.K.. . . ",
". . . . . P.Q.M.n.t.t.t.n.R.S.T.U.|.|.|.|.|.|.|.|.|.1.2.K.. . . ",
". . . . . . V.W.X.o.s.t.t.n.M.Y.U.|.|.|.|.|.|.|.|.|.1.2.H.. . . ",
". . . . . . . . Z.`. +n.t.t.n..+|.|.|.|.|.|.|.|.[.++@+#+$+. . . ",
". . . . . . . . . V.%+&+o.s.t.*+|.|.|.|.|.[.=+-+;+>+,+. . V.. . ",
". . . . . . . . . . . s '+)+!+~+|.|.[.{+]+^+/+7 . . . . . . . . ",
". . . . . . . . . . . . . (+_+:+<+[+}+|+7 . . . . . . . . . . . ",
". . . . . . . . . . . . . . 1+2+,+. . . . . . . . . . . . . . . ",
". . . . . . . . . . . . . . . . . . . . . . . . . . . . . . . . ",
". . . . . . . . . . . . . . . . . . . . . . . . . . . . . . . . ",
". . . . . . . . . . . . . . . . . . . . . . . . . . . . . . . . "};
