/* XPM */
static char * SA_icon_arrows_down_xpm[] = {
"12 12 3 1",
" 	c None",
".	c #030404",
"+	c #020303",
" .+      +. ",
" +.+    ... ",
"  +.+  +.+  ",
"   +.+..+   ",
"    ++++    ",
"     ++     ",
" .+      +. ",
" +.+    .++ ",
"  +.+  .++  ",
"   +.+.++   ",
"    +.++    ",
"     ..     "};
