/* XPM */
static char * SA_icon_continuous_on_xpm[] = {
"32 32 121 2",
"  	c None",
". 	c #676767",
"+ 	c #7B664E",
"@ 	c #8B673F",
"# 	c #70665D",
"$ 	c #866644",
"% 	c #956837",
"& 	c #6F665D",
"* 	c #70665A",
"= 	c #CF7413",
"- 	c #836647",
"; 	c #B36D21",
"> 	c #DA770E",
", 	c #D9770E",
"' 	c #B36D22",
") 	c #836646",
"! 	c #6D6660",
"~ 	c #CF7412",
"{ 	c #D27512",
"] 	c #BE701B",
"^ 	c #9E692F",
"/ 	c #90673B",
"( 	c #91683A",
"_ 	c #9F692F",
": 	c #BF701B",
"< 	c #D47610",
"[ 	c #B06D23",
"} 	c #726558",
"| 	c #D8770F",
"1 	c #936839",
"2 	c #686767",
"3 	c #866645",
"4 	c #C77216",
"5 	c #BA6E1D",
"6 	c #6C6661",
"7 	c #72665A",
"8 	c #C87216",
"9 	c #90683A",
"0 	c #696764",
"a 	c #726658",
"b 	c #AD6B24",
"c 	c #B56D1F",
"d 	c #6D675F",
"e 	c #6D665E",
"f 	c #B16D23",
"g 	c #B26D23",
"h 	c #BC6F1D",
"i 	c #786651",
"j 	c #6F655B",
"k 	c #B86E1D",
"l 	c #D8770E",
"m 	c #966836",
"n 	c #6C6660",
"o 	c #7E654B",
"p 	c #6A6661",
"q 	c #846646",
"r 	c #BB6F1D",
"s 	c #6E665E",
"t 	c #816649",
"u 	c #D07412",
"v 	c #A36A2D",
"w 	c #676665",
"x 	c #C0701A",
"y 	c #D4750F",
"z 	c #7E664C",
"A 	c #9C6831",
"B 	c #926739",
"C 	c #8F673C",
"D 	c #9C6932",
"E 	c #AD6C25",
"F 	c #786551",
"G 	c #7B664F",
"H 	c #AB6B27",
"I 	c #756656",
"J 	c #776653",
"K 	c #AE6C24",
"L 	c #A56A2B",
"M 	c #856645",
"N 	c #AA6B27",
"O 	c #B76E1F",
"P 	c #D7760E",
"Q 	c #886642",
"R 	c #746656",
"S 	c #CB7315",
"T 	c #846747",
"U 	c #726659",
"V 	c #6A6764",
"W 	c #A96B28",
"X 	c #A26A2D",
"Y 	c #8A6741",
"Z 	c #896641",
"` 	c #6A6763",
" .	c #756554",
"..	c #D5750F",
"+.	c #856644",
"@.	c #C17019",
"#.	c #D7770F",
"$.	c #71665A",
"%.	c #876642",
"&.	c #976835",
"*.	c #686665",
"=.	c #70665B",
"-.	c #C27119",
";.	c #7F664A",
">.	c #736659",
",.	c #80664A",
"'.	c #9E6931",
").	c #C67218",
"!.	c #796653",
"~.	c #B76D1E",
"{.	c #D17512",
"].	c #AF6C24",
"^.	c #AD6C26",
"/.	c #6F665B",
"(.	c #9B6832",
"_.	c #AC6C26",
":.	c #B66E20",
"<.	c #986833",
"[.	c #766654",
"}.	c #686664",
"|.	c #736657",
". . . . . . . . . . . . . . . . . . . . . . . . . . . . . . . . ",
". . . . . . . . . . . . . . . . . . . . . . . . . . . . . . . . ",
". . . . . . . . . . . . . . . . . . . . . . . . . . . . . . . . ",
". . . . . . . . . . . . . . . . . . . . . . . . . . . . . . . . ",
". . . . . . . . . . . . . . . . . . . . . . . . . . . . . . . . ",
". . . . . . . . . . . . . . . . . . . . . . . . . . . . . . . . ",
". . . . . . . . + @ . . . # $ % % $ & . . . . . . . . . . . . . ",
". . . . . . . . * = $ - ; > > > > > , ' ) ! . . . . . . . . . . ",
". . . . . . . . * > ~ { > ] ^ / ( _ : > < [ } . . . . . . . . . ",
". . . . . . . . * > > | 1 . . . . . 2 3 4 > 5 6 . . . . . . . . ",
". . . . . . . . 7 > > > 8 9 0 . . . . . a b > c d . . . . . . . ",
". . . . . . . . e f f f g h i . . . . . . j k l m . . . . . . . ",
". . . . . . n o p . . . . . . . . . . . . . q > r s . . . . . . ",
". . . . . . t u v . . . . . . . . . . . . . w x y z . . . . . . ",
". . . . . . A > B . . . . . . . . . . . . . . C > D . . . . . . ",
". . . . . . E > F . . . . . . . . . . . . . . G > H . . . . . . ",
". . . . . . f > I . . . . . . . . . . . . . . J > K . . . . . . ",
". . . . . . L > - . . . . . . . . . . . . . . M > v . . . . . . ",
". . . . . . @ > N . . . . . . . . . . . . . . O P Q . . . . . . ",
". . . . . . R S l # . . . . . . . . . . . . . T ] U . . . . . . ",
". . . . . . V W > X V . . . . . . 7 C Y Y Y Z ` p w . . . . . . ",
". . . . . . .  .> ..+.. . . . . . d @.#.#.#.#.$.. . . . . . . . ",
". . . . . . . . %.= > &.$.. . . . . *.H , > > =.. . . . . . . . ",
". . . . . . . . . Z u #.-.D ;.>.a ,.'.)., > > =.. . . . . . . . ",
". . . . . . . . . . !.~.{ > > > > > > {.].^.| /.. . . . . . . . ",
". . . . . . . . . . . ` t (._.:.:._.<.,.V e N [.. . . . . . . . ",
". . . . . . . . . . . . . 2 }.0 0 *.2 . . . # |.. . . . . . . . ",
". . . . . . . . . . . . . . . . . . . . . . . . . . . . . . . . ",
". . . . . . . . . . . . . . . . . . . . . . . . . . . . . . . . ",
". . . . . . . . . . . . . . . . . . . . . . . . . . . . . . . . ",
". . . . . . . . . . . . . . . . . . . . . . . . . . . . . . . . ",
". . . . . . . . . . . . . . . . . . . . . . . . . . . . . . . . "};
