/* XPM */
static char * SA_icon_3d_off_xpm[] = {
"32 32 58 1",
" 	c None",
".	c #414141",
"+	c #424242",
"@	c #454545",
"#	c #474747",
"$	c #515151",
"%	c #5A5A5A",
"&	c #5F5F5F",
"*	c #606060",
"=	c #5B5B5B",
"-	c #4F4F4F",
";	c #434343",
">	c #4D4D4D",
",	c #575757",
"'	c #626262",
")	c #636363",
"!	c #646464",
"~	c #585858",
"{	c #494949",
"]	c #4B4B4B",
"^	c #6A6A6A",
"/	c #696969",
"(	c #676767",
"_	c #666666",
":	c #525252",
"<	c #444444",
"[	c #5D5D5D",
"}	c #6B6B6B",
"|	c #707070",
"1	c #737373",
"2	c #717171",
"3	c #6E6E6E",
"4	c #6D6D6D",
"5	c #5C5C5C",
"6	c #3D3D3D",
"7	c #404040",
"8	c #747474",
"9	c #7B7B7B",
"0	c #7A7A7A",
"a	c #787878",
"b	c #777777",
"c	c #767676",
"d	c #616161",
"e	c #484848",
"f	c #464646",
"g	c #3F3F3F",
"h	c #848484",
"i	c #818181",
"j	c #808080",
"k	c #565656",
"l	c #535353",
"m	c #4A4A4A",
"n	c #3A3A3A",
"o	c #3C3C3C",
"p	c #545454",
"q	c #4C4C4C",
"r	c #393939",
"s	c #505050",
"................................",
"................................",
"................................",
"................................",
"................................",
"................................",
"................+@..............",
".............#$%&*=-+...........",
".........;>,*'))!!!)'~{.........",
"......]~)^//((____!!!!!&:<......",
".....<[}|12||334}}^^///(((5>+...",
".....67<,/890abcc8111123^(d,e...",
"......f;6g-dchijjjj98}_*%klm+7..",
".....;{f;gno#k|i0|(*5,lllppq;7..",
".....@q{f;7orn+s%,pllppppppq;7..",
".....#-q{f;7onn{kppppppppppq;7..",
".....#$sq{f+gon{kppppppppppq;7..",
".....#llsq{f+g6{kppppppppppq;7..",
".....#lll-q{f+7mkppppppppppq;7..",
".....#llll-m{<;qpppppppppppq;...",
".....#lllll-m#f>pppppppppppq;...",
".....;-llll$-m#-pppppppppppq;...",
"......{-$lll$>q-pppppppppppq;...",
".......fqslll$-spppppppppppq;...",
"........;m-$ll$$ppppppppl:$e....",
"..........@qslllpppppl$-]#+.....",
"...........+#>$ppplsq{@.........",
".............;m$-{f;............",
"...............;+...............",
"................................",
"................................",
"................................"};
