/* XPM */
static char * SA_icon_region_on_xpm[] = {
"24 24 3 1",
" 	c None",
".	c #6B6B6B",
"+	c #F39D3C",
"........................",
"........................",
"........................",
"........................",
"........................",
"........................",
".....++++++++++++++.....",
".....++++++++++++++.....",
".....++..........++.....",
".....++..........++.....",
".....++..........++.....",
".....++..........++.....",
".....++..........++.....",
".....++..........++.....",
".....++..........++.....",
".....++..........++.....",
".....++++++++++++++.....",
".....++++++++++++++.....",
"........................",
"........................",
"........................",
"........................",
"........................",
"........................"};
