/* XPM */
static char * SA_icon_ch_blue_xpm[] = {
"32 32 114 2",
"  	c None",
". 	c #0D0D0D",
"+ 	c #1D1D1D",
"@ 	c #474747",
"# 	c #8C8C8C",
"$ 	c #C8C8C8",
"% 	c #F6F6F6",
"& 	c #FFFFFF",
"* 	c #4E4E4E",
"= 	c #505050",
"- 	c #8D8D8D",
"; 	c #C3C3C3",
"> 	c #ECECEC",
", 	c #353535",
"' 	c #979797",
") 	c #FCFCFC",
"! 	c #9C9C9C",
"~ 	c #404040",
"{ 	c #F1F1F1",
"] 	c #BFBFBF",
"^ 	c #A4A4A4",
"/ 	c #5B5B5B",
"( 	c #BBBBBB",
"_ 	c #5A5A5A",
": 	c #A9A9A9",
"< 	c #B3B3B3",
"[ 	c #757575",
"} 	c #717171",
"| 	c #CBCBCB",
"1 	c #606060",
"2 	c #525252",
"3 	c #C5C5C5",
"4 	c #8E8E8E",
"5 	c #8B8B8B",
"6 	c #272727",
"7 	c #7E7E7E",
"8 	c #343434",
"9 	c #1F1F1F",
"0 	c #2C2C2C",
"a 	c #CECECE",
"b 	c #727272",
"c 	c #13131B",
"d 	c #6767FF",
"e 	c #2F2FFF",
"f 	c #0E0EFF",
"g 	c #0202FF",
"h 	c #6D6D9A",
"i 	c #A8A8A8",
"j 	c #414160",
"k 	c #1D1D99",
"l 	c #000034",
"m 	c #0000FF",
"n 	c #000074",
"o 	c #1D1D98",
"p 	c #28283B",
"q 	c #858585",
"r 	c #ABABAB",
"s 	c #2D2D67",
"t 	c #0000BB",
"u 	c #00005A",
"v 	c #00005E",
"w 	c #22224D",
"x 	c #282864",
"y 	c #00008B",
"z 	c #18183B",
"A 	c #BEBEBE",
"B 	c #414174",
"C 	c #000098",
"D 	c #0000C5",
"E 	c #00009C",
"F 	c #000097",
"G 	c #161627",
"H 	c #AEAEBA",
"I 	c #040455",
"J 	c #0000F1",
"K 	c #000071",
"L 	c #0000BC",
"M 	c #040450",
"N 	c #6D6D74",
"O 	c #4B4B8B",
"P 	c #00008D",
"Q 	c #0000C8",
"R 	c #00007B",
"S 	c #18182C",
"T 	c #CACACA",
"U 	c #16165B",
"V 	c #0000C3",
"W 	c #0000A9",
"X 	c #0000EA",
"Y 	c #07071D",
"Z 	c #E1E1E1",
"` 	c #3F3F3F",
" .	c #030329",
"..	c #0000DA",
"+.	c #02021D",
"@.	c #696969",
"#.	c #00001D",
"$.	c #000052",
"%.	c #0000EC",
"&.	c #000080",
"*.	c #000090",
"=.	c #000050",
"-.	c #0000B3",
";.	c #00001F",
">.	c #00007E",
",.	c #10101D",
"'.	c #1A1A40",
").	c #232350",
"!.	c #2B2B40",
"~.	c #1C1C97",
"{.	c #383850",
"].	c #39398D",
"^.	c #2424C3",
"/.	c #0D0DEC",
"                                                                ",
"              . . . . . . .         + + + + + + +               ",
"          . @ # $ % & % $ # * + + = - ; > & > ; - = +           ",
"        , ' ) & & & & & & & ! ~ ~ ! & & & & & & & { ' ~         ",
"      @ ] & & & & & & & & ^ / ( ( _ : & & & & & & & & ( =       ",
"    , ] & & & & & & & & < / ( & & ( _ $ & & & & & & & & ( ~     ",
"  . ' & & & & & & & & & [ ' & & & & ' } & & & & & & & & & ' +   ",
"  @ ) & & & & & & & & | 1 { & & & & { 2 3 & & & & & & & & { =   ",
". # & & & & & & & & & 4 - & & & & & & - 5 & & & & & & & & & - + ",
". $ & & & & & & & & & / ; & & & & & & ; _ & & & & & & & & & ; + ",
". % & & & & & & & & & 6 7 _ 8 9 8 _ 5 < 0 & & & & & & & & & > + ",
". & & & & & & & & a b c d e f g f e d h + < & & & & & & & & & + ",
". % & & & & & & i j k l m m m m m m m n o p q & & & & & & & > + ",
". $ & & & & & r s t m u m m m m m m m v m t w 7 & & & & & & ; + ",
". # & & & & a x t m m y m m m m m m m n m m t z A & & & & & - + ",
"  @ ) & & & B C m m m D E m m m m m m n m m m F G { & & & { =   ",
"  . ' & & H I J m m m m K m m m m m m L m m m J M N & & & ' +   ",
"    , ] & O P m m m m m Q R m m m m n m m m m m P S & & T ~     ",
"      @ ] U V m m m m m m W F m m C X m m m m m V Y Z Z =       ",
"        `  ...m m m m m m m E K n n m m m m m m ..+.@.~         ",
"          #.$.P V %.m %.V P $.u &.*.V %.m %.V P =.#.+           ",
"          +.-.y u l ;.l u y D m m D y u l ;.l u >.+.            ",
"          Y V m m m m m m m m m m m m m m m m m V Y             ",
"          ,.P m m m m m m m m m m m m m m m m m P ,.            ",
"            M J m m m m m m m m m m m m m m m J M               ",
"            ,.F m m m m m m m m m m m m m m m F ,.              ",
"              '.t m m m m m m m m m m m m m t '.                ",
"                ).t m m m m m m m m m m m t ).                  ",
"                  !.~.J m m m m m m m J ~.!.                    ",
"                    + {.].^./.g /.^.].{.+                       ",
"                        + + + + + + +                           ",
"                                                                "};
