/* XPM */
static char * SA_icon_stop_xpm[] = {
"32 32 3 1",
" 	c None",
".	c #414141",
"+	c #808080",
"................................",
"................................",
"................................",
"................................",
"................................",
"................................",
"................................",
"................................",
"................................",
".........++++++++++++++.........",
".........++++++++++++++.........",
".........++++++++++++++.........",
".........++++++++++++++.........",
".........++++++++++++++.........",
".........++++++++++++++.........",
".........++++++++++++++.........",
".........++++++++++++++.........",
".........++++++++++++++.........",
".........++++++++++++++.........",
".........++++++++++++++.........",
".........++++++++++++++.........",
".........++++++++++++++.........",
".........++++++++++++++.........",
"................................",
"................................",
"................................",
"................................",
"................................",
"................................",
"................................",
"................................",
"................................"};
