/* XPM */
static char * SA_logo_32_xpm[] = {
"32 32 3 1",
" 	c None",
".	c #232020",
"+	c #231F20",
"                                ",
"                                ",
"                                ",
"               ..               ",
"              ++++              ",
"             +++++              ",
"             ++++++             ",
"            +++++++             ",
"            +++ ++++            ",
"           ++++  +++            ",
"           ++++  +++            ",
"           +++   ++++           ",
"          ++++    +++           ",
"          +++     ++++          ",
"         ++++      +++          ",
"         +++       ++++         ",
"         +++       ++++         ",
"        +++ +++++++ +++         ",
"        +++ ++++++++++++        ",
"       +++++++++++++++++        ",
"       ++++++      ++++++       ",
"      ++++            +++       ",
"      ++++            +++       ",
"      ++++           ++++       ",
"       +++++       +++++        ",
"        +++++++++++++++         ",
"         +++++++++++++          ",
"           +++++++++            ",
"            .++++++             ",
"                                ",
"                                ",
"                                "};
