/* XPM */
static char * SA_logo_32_xpm[] = {
"32 32 2 1",
" 	c None",
".	c #231F20",
"                                ",
"                                ",
"                                ",
"                                ",
"               ..               ",
"              ...               ",
"              ....              ",
"             ..  .              ",
"             .   ..             ",
"            ..   ..             ",
"            ..    ..            ",
"           ..     ..            ",
"           ..      .            ",
"           .       ..           ",
"          ..       ..           ",
"          ..        ..          ",
"         ..         ..          ",
"         ..          .          ",
"         .  .......  ..         ",
"        ..  .     .   .         ",
"        .             ..        ",
"       ..             ..        ",
"       ..              ..       ",
"       ..             ..        ",
"        ...          ..         ",
"         ...       ...          ",
"           ..........           ",
"              ....              ",
"                                ",
"                                ",
"                                ",
"                                "};
