<?xml version="1.0" encoding="utf-8"?>
<!-- Generator: Adobe Illustrator 19.2.1, SVG Export Plug-In . SVG Version: 6.00 Build 0)  -->
<svg version="1.2" baseProfile="tiny" id="Layer_1" xmlns="http://www.w3.org/2000/svg" xmlns:xlink="http://www.w3.org/1999/xlink"
	 x="0px" y="0px" viewBox="0 0 240 240" xml:space="preserve">
<g>
	<g>
		<path fill="#BFB23A" d="M114.1,185.9l3-3l1,0c17.7-6.5,36.4-18.8,36.4-27.1c0-2-1.8-12.4-38.2-25.9C81.4,117,64.5,102.1,64.6,84.3
			c0-12.8,9.1-24.8,26.9-35.7c11.7-7.1,23.2-11.3,23.7-11.5l3.8-1.4l7.2,19.7l-3.8,1.4c-17.8,6.5-36.8,19.1-36.8,27.5
			c0,7.2,14.5,17.1,37.9,25.8c35,13,52,27.9,51.9,45.7c-0.1,12.8-9.2,24.8-27.1,35.6c-11.7,7.1-23.4,11.3-23.8,11.4l-3.8,1.4
			L114.1,185.9z"/>
	</g>
	<g>
		<path fill="#1D1D1D" d="M116.6,40.9l4.4,12.2C105.8,58.6,81.6,72,81.6,84.3c0,5.4,5.2,16.5,40.5,29.6c33.3,12.3,49.4,26,49.3,41.9
			c-0.1,11.3-8.5,22.2-25.2,32.2c-11.4,6.9-22.7,10.9-23.1,11.1l-4.4-12.2c15.3-5.5,39.7-18.8,39.7-31.1c0-5.4-5.2-16.5-40.8-29.7
			c-33-12.2-49.1-25.9-49-41.8c0-11.3,8.5-22.2,25-32.3C104.9,45.1,116.1,41,116.6,40.9 M118.7,186.9l2.2,6.1L118.7,186.9
			C118.7,186.9,118.7,186.9,118.7,186.9 M121.4,30.6l-7.5,2.7c-0.5,0.2-12.4,4.5-24.4,11.9C70.3,56.8,60.6,70,60.6,84.3
			c0,10.4,5,19.9,14.9,28.4c8.9,7.6,21.8,14.4,39.3,20.9c34.7,12.8,35.6,22.1,35.6,22.1c0,1.4-2.3,5.7-10.7,11.6
			c-7.3,5.1-16.1,9.2-22.4,11.6h-0.5l-1.3,0.7l-7,2.5l0.3,0.9l0,0l2.4,6.6l2.2,6.1l2.2,6.1l2.7,7.5l7.5-2.7
			c0.5-0.2,12.5-4.5,24.6-11.8c19.2-11.6,29-24.7,29.1-39c0.1-10.4-5-20-15-28.5c-8.9-7.6-21.9-14.5-39.6-21
			c-34.4-12.7-35.3-21.9-35.3-22c0-1.6,2.2-5.8,10.6-11.6c7.7-5.4,17.2-9.8,23.6-12.1l7.5-2.7l-2.7-7.5l-4.4-12.2L121.4,30.6
			L121.4,30.6z"/>
	</g>
</g>
<g>
	<path fill="#BDBDBD" stroke="#1D1D1D" stroke-width="8" stroke-linecap="round" stroke-miterlimit="10" d="M41.9,159.3
		c-5.3-10.4-8.5-22-9.2-34.3H16.5c0.7,15.2,4.7,29.6,11.4,42.5L41.9,159.3z"/>
	<path fill="#BDBDBD" stroke="#1D1D1D" stroke-width="8" stroke-linecap="round" stroke-miterlimit="10" d="M125,16.5v16.3
		c12.3,0.7,23.9,3.9,34.3,9.2l8.1-14.1C154.6,21.2,140.2,17.2,125,16.5z"/>
	<path fill="#BDBDBD" stroke="#1D1D1D" stroke-width="8" stroke-linecap="round" stroke-miterlimit="10" d="M159.3,198.1
		c-10.4,5.3-22,8.5-34.3,9.2v16.3c15.2-0.7,29.6-4.7,42.5-11.4L159.3,198.1z"/>
	<path fill="#BDBDBD" stroke="#1D1D1D" stroke-width="8" stroke-linecap="round" stroke-miterlimit="10" d="M16.5,115h16.3
		c0.7-12.3,3.9-23.9,9.2-34.3l-14.1-8.1C21.2,85.4,17.2,99.8,16.5,115z"/>
	<path fill="#BDBDBD" stroke="#1D1D1D" stroke-width="8" stroke-linecap="round" stroke-miterlimit="10" d="M80.7,41.9
		c10.4-5.3,22-8.5,34.3-9.2V16.5c-15.2,0.7-29.6,4.7-42.5,11.4L80.7,41.9z"/>
	<path fill="#BDBDBD" stroke="#1D1D1D" stroke-width="8" stroke-linecap="round" stroke-miterlimit="10" d="M115,223.5v-16.3
		c-12.3-0.7-23.9-3.9-34.3-9.2l-8.1,14.1C85.4,218.8,99.8,222.8,115,223.5z"/>
	<path fill="#BDBDBD" stroke="#1D1D1D" stroke-width="8" stroke-linecap="round" stroke-miterlimit="10" d="M72,193.1
		C62,186.5,53.5,178,46.9,168l-14.1,8.1c8,12.4,18.6,23.1,31.1,31.1L72,193.1z"/>
	<path fill="#BDBDBD" stroke="#1D1D1D" stroke-width="8" stroke-linecap="round" stroke-miterlimit="10" d="M223.5,125h-16.3
		c-0.7,12.3-3.9,23.9-9.2,34.3l14.1,8.1C218.8,154.6,222.8,140.2,223.5,125z"/>
	<path fill="#BDBDBD" stroke="#1D1D1D" stroke-width="8" stroke-linecap="round" stroke-miterlimit="10" d="M193.1,168
		c-6.6,10-15.1,18.5-25.1,25.1l8.1,14.1c12.4-8,23.1-18.6,31.1-31.1L193.1,168z"/>
	<path fill="#BDBDBD" stroke="#1D1D1D" stroke-width="8" stroke-linecap="round" stroke-miterlimit="10" d="M46.9,72
		C53.5,62,62,53.5,72,46.9l-8.1-14.1c-12.4,8-23.1,18.6-31.1,31.1L46.9,72z"/>
	<path fill="#BDBDBD" stroke="#1D1D1D" stroke-width="8" stroke-linecap="round" stroke-miterlimit="10" d="M168,46.9
		c10,6.6,18.5,15.1,25.1,25.1l14.1-8.1c-8-12.4-18.6-23.1-31.1-31.1L168,46.9z"/>
	<path fill="#BDBDBD" stroke="#1D1D1D" stroke-width="8" stroke-linecap="round" stroke-miterlimit="10" d="M198.1,80.7
		c5.3,10.4,8.5,22,9.2,34.3h16.3c-0.7-15.2-4.7-29.6-11.4-42.5L198.1,80.7z"/>
</g>
<rect fill-rule="evenodd" fill="none" width="240" height="240"/>
<g>
</g>
<g>
</g>
<g>
</g>
<g>
</g>
<g>
</g>
<g>
</g>
</svg>
