<?xml version="1.0" encoding="utf-8"?>
<!-- Generator: Adobe Illustrator 19.2.1, SVG Export Plug-In . SVG Version: 6.00 Build 0)  -->
<svg version="1.2" baseProfile="tiny" id="Layer_1" xmlns="http://www.w3.org/2000/svg" xmlns:xlink="http://www.w3.org/1999/xlink"
	 x="0px" y="0px" viewBox="0 0 240 240" xml:space="preserve">
<rect fill-rule="evenodd" fill="none" width="240" height="240"/>
<path fill="#BFB23A" stroke="#1D1D1D" stroke-width="8" stroke-linecap="round" stroke-miterlimit="10" d="M223.7,120
	c0-57.3-46.4-103.7-103.7-103.7S16.3,62.7,16.3,120 M32.6,120c0-48.3,39.1-87.4,87.4-87.4s87.4,39.1,87.4,87.4"/>
<path fill="#BDBDBD" stroke="#1D1D1D" stroke-width="8" stroke-linecap="round" stroke-miterlimit="10" d="M16.3,120
	c0,57.3,46.4,103.7,103.7,103.7S223.7,177.3,223.7,120 M207.4,120c0,48.3-39.1,87.4-87.4,87.4S32.6,168.3,32.6,120"/>
<g>
	<rect x="5.8" y="112" fill="#BFB23A" width="228.5" height="16"/>
	<path fill="#1D1D1D" d="M230.2,116v8H9.8v-8H230.2 M238.2,108h-8H9.8h-8v8v8v8h8h220.5h8v-8v-8V108L238.2,108z"/>
</g>
<g>
</g>
<g>
</g>
<g>
</g>
<g>
</g>
<g>
</g>
<g>
</g>
</svg>
