<?xml version="1.0" encoding="utf-8"?>
<!-- Generator: Adobe Illustrator 19.2.1, SVG Export Plug-In . SVG Version: 6.00 Build 0)  -->
<svg version="1.2" baseProfile="tiny" id="Layer_1" xmlns="http://www.w3.org/2000/svg" xmlns:xlink="http://www.w3.org/1999/xlink"
	 x="0px" y="0px" viewBox="0 0 240 240" xml:space="preserve">
<g>
	<path fill-rule="evenodd" fill="#48AAB5" d="M120,182l-52.5-30.5V88.4L120,58l52.6,30.4v63.1L120,182z"/>
</g>
<path fill="#1D1D1D" d="M119.8,60.9L170.2,90v60.4l-50.4,29.2l-50.3-29.2V90L119.8,60.9 M119.8,51.6l-4,2.3L65.5,83.1l-4,2.3V90
	v60.4v4.6l4,2.3l50.3,29.2l4,2.3l4-2.3l50.4-29.2l4-2.3v-4.6V90v-4.6l-4-2.3l-50.3-29.2L119.8,51.6L119.8,51.6z"/>
<g>
	
		<polyline fill-rule="evenodd" fill="none" stroke="#1D1D1D" stroke-width="8" stroke-linecap="round" stroke-miterlimit="10" points="
		119.8,179.6 119.8,120 69.5,90 	"/>
	
		<line fill-rule="evenodd" fill="none" stroke="#1D1D1D" stroke-width="8" stroke-linecap="round" stroke-miterlimit="10" x1="170.2" y1="90" x2="119.8" y2="120"/>
</g>
<rect fill-rule="evenodd" fill="none" width="240" height="240"/>
<g>
	<g>
		<path fill-rule="evenodd" fill="#BDBDBD" d="M29.7,174.1V65.9L120,13.6l90.3,52.3v108.2l-90.4,52.3L29.7,174.1z M110.2,199.1
			v-76.7L49.2,89v74.2L110.2,199.1z M129.8,199.1l61.1-35.9V89l-61.1,33.4V199.1z M120,103.9L180.9,71L120,34.9L59.1,71L120,103.9z"
			/>
	</g>
	<g>
		<path fill="#1D1D1D" d="M120,18.2l86.3,50v103.6l-86.4,50l-86.2-50V68.2L120,18.2 M120,108.5l69.1-37.3l-69.1-41l-69.1,41
			L120,108.5 M125.8,206.1l69.1-40.6V82.2L125.8,120V206.1 M114.2,206.1V120L45.2,82.2v83.3L114.2,206.1 M120,9l-4,2.3l-86.3,50
			l-4,2.3v4.6v103.6v4.6l4,2.3l86.2,50l4,2.3l4-2.3l86.4-50l4-2.3v-4.6V68.2v-4.6l-4-2.3l-86.3-50L120,9L120,9z M67.2,70.9L120,39.5
			l52.8,31.3L120,99.4L67.2,70.9L67.2,70.9z M53.2,160.9V95.7l53.1,29v67.4L53.2,160.9L53.2,160.9z M133.8,124.7l53.1-29v65.2
			l-53.1,31.2V124.7L133.8,124.7z"/>
	</g>
</g>
<g>
</g>
<g>
</g>
<g>
</g>
<g>
</g>
<g>
</g>
<g>
</g>
</svg>
