<svg xmlns="http://www.w3.org/2000/svg" width="24.0016" height="21.9954" viewBox="0 0 24.0016 21.9954"><g id="e380f6be-be22-4808-a69f-8d5214410ff1" data-name="container - LIGHT BLUE"><path id="abd7be3b-4e38-43c3-ab17-34b093f8a3be" data-name="back layer" d="M.9965,5.9985H21.7233A1.2814,1.2814,0,0,1,23.0047,7.28V24.0012a0,0,0,0,1,0,0H.9965a0,0,0,0,1,0,0V5.9985A0,0,0,0,1,.9965,5.9985Z" transform="translate(24.998 27.9939) rotate(180)" fill="#36697f"/><path id="eab1eacb-8e2d-405a-9cd3-6deba626441a" data-name="primary facade" d="M3.99,0H20.7013a1.2814,1.2814,0,0,1,1.2814,1.2814V17.9889a0,0,0,0,1,0,0H3.99a0,0,0,0,1,0,0V0A0,0,0,0,1,3.99,0Z" fill="#37a5cc"/><polygon id="e24d1142-c26e-4477-ac15-c867496a57da" data-name="flap" points="0 20.252 3.99 17.989 3.99 0 0 2.432 0 20.252" fill="#7dc6dd"/></g><g id="f71e8111-a5b8-4f00-8a7f-127ebe2fe225" data-name="product initial template"><path d="M13.3165,13.66H10.3844L9.84,15.7959H7.4107l2.7925-9.773h3.2529l2.9458,9.773H13.9166ZM11.8223,7.6289l-.9912,4.2163h2.0108Z" transform="translate(0.9969 -2.0058)" fill="#fff"/></g></svg>