<svg width="266" height="150" viewBox="0 0 266 150" fill="none" xmlns="http://www.w3.org/2000/svg">
<g opacity="0.3">
<path d="M135.4 130.34L63.04 141L56.71 125.6L122.16 63.65L134.15 86.13L135.4 130.34Z" fill="#202020"/>
<path d="M181.16 137.34L152.97 140.5L180.77 66.17L242.6 101.87L181.16 137.34Z" fill="#202020"/>
<path opacity="0.3" d="M135.4 130.34L63.04 141L56.71 125.6L122.16 63.65L134.15 86.13L135.4 130.34Z" fill="#5A7D91"/>
<path opacity="0.3" d="M181.16 137.34L152.97 140.5L180.77 66.17L242.6 101.87L181.16 137.34Z" fill="#5A7D91"/>
</g>
<path d="M152.65 11.32L209.72 44.48V60.88L152.65 94V11.32Z" fill="#949494"/>
<path d="M95.2 44.27L152.65 11.32V94.25L95.2 60.88V44.27Z" fill="#6F6F6F"/>
<path d="M152.65 49.96L178.34 64.95L186.36 60.31L152.65 40.68L118.56 60.19L126.61 64.84L152.65 49.96Z" fill="#C0C0C0"/>
<path d="M136.92 70.07L152.65 61.13L168 70.13L152.65 79.07L136.92 70.07Z" fill="#C0C0C0"/>
<path d="M90.32 44.76L94.67 45.78L161.5 83.75V128L152.65 139.77L90.32 103.96V44.76Z" fill="#949494"/>
<path d="M134.15 86.13L122.16 63.65L90.32 93.78V103.96L135.38 129.85L134.15 86.13Z" fill="#6F6F6F"/>
<path d="M214.58 44.98L176.65 64.85L152.65 80.74V139.77L214.58 103.96V44.98Z" fill="#6F6F6F"/>
<path d="M152.65 80.74V139.77" stroke="#4F4F4F" stroke-width="0.66" stroke-linecap="round" stroke-linejoin="round"/>
<path d="M157.96 43.81L152.65 40.68L118.56 60.19L124.08 63.37L157.96 43.81Z" fill="#6F6F6F"/>
<path d="M157.96 43.81L152.65 40.68V11.32L157.96 43.81Z" fill="#6F6F6F"/>
<path d="M154.55 62.31L152.65 61.13L136.92 70.07L139.02 71.28L154.55 62.31Z" fill="#6F6F6F"/>
<path d="M154.55 62.31L152.65 61.13V49.96L154.55 62.31Z" fill="#6F6F6F"/>
<path fill-rule="evenodd" clip-rule="evenodd" d="M152.65 49.96L178.34 64.95L186.36 60.31L152.65 40.68L118.56 60.19L126.61 64.84L152.65 49.96V49.96Z" stroke="#4F4F4F" stroke-width="0.66" stroke-linecap="round" stroke-linejoin="round"/>
<path fill-rule="evenodd" clip-rule="evenodd" d="M136.92 70.07L152.65 61.13L168 70.13L152.65 79.07L136.92 70.07V70.07Z" stroke="#4F4F4F" stroke-width="0.66" stroke-linecap="round" stroke-linejoin="round"/>
<path d="M152.65 40.8V11.32" stroke="#4F4F4F" stroke-width="0.66" stroke-linecap="round" stroke-linejoin="round"/>
<path d="M152.65 61.3V50.06" stroke="#4F4F4F" stroke-width="0.66" stroke-linecap="round" stroke-linejoin="round"/>
<path fill-rule="evenodd" clip-rule="evenodd" d="M90.32 44.76L152.65 9L214.58 45L152.65 80.76L90.32 44.76ZM96.19 44.27L152.65 76.87L208.74 44.48L152.64 11.89L96.19 44.27Z" fill="#C0C0C0"/>
<path fill-rule="evenodd" clip-rule="evenodd" d="M152.64 76.85L96.22 44.27L152.64 11.9L208.71 44.48L152.64 76.85Z" stroke="#4F4F4F" stroke-width="0.66" stroke-linecap="round" stroke-linejoin="round"/>
<path d="M90.32 44.76L152.65 80.76L214.58 45" stroke="#4F4F4F" stroke-width="0.66" stroke-linecap="round" stroke-linejoin="round"/>
<path fill-rule="evenodd" clip-rule="evenodd" d="M152.02 7.92001L152.65 7.56001V7.54001L153.27 7.90001L215.21 43.9L215.83 44.26V104.64L215.21 105L153.25 140.86L152.63 141.22L152 140.86L89.7 105.04L89.07 104.68V44.03L89.7 43.67L152.02 7.92001ZM214.58 45L152.65 9.00001L90.32 44.76V104L152.65 139.81L214.58 104V45Z" fill="#202020"/>
<path d="M71.29 138.42L124.87 68.03L111.74 55.48L61.21 118.88L59.25 133.02L71.29 138.42Z" fill="#6F6F6F"/>
<path d="M99.02 16.59L86.98 11.19L94.38 42.18L112.82 62.63L124.87 68.03L99.02 16.59Z" fill="#C0C0C0"/>
<path d="M33.4 81.58L86.98 11.19L112.82 62.63L59.25 133.02L33.4 81.58Z" fill="#C0C0C0"/>
<path d="M86.98 11.19L112.82 62.63L59.25 133.02" stroke="#4F4F4F" stroke-width="0.66" stroke-linecap="round" stroke-linejoin="round"/>
<path d="M112.82 62.63L124.87 68.03" stroke="#4F4F4F" stroke-width="0.66" stroke-linecap="round" stroke-linejoin="round"/>
<path fill-rule="evenodd" clip-rule="evenodd" d="M86 10.43L86.6 9.64L86.62 9.62L87.53 10.03L99.53 15.42L99.94 15.61L100.14 16L125.95 67.47L126.3 68.16L125.82 68.78L72.25 139.17L71.65 139.96L70.74 139.56L58.74 134.16L58.33 133.98L58.13 133.58L32.28 82.14L31.93 81.44L32.41 80.82L86 10.43ZM99 16.59L87 11.19L33.4 81.58L59.29 133.02L71.29 138.42L124.87 68L99 16.59Z" fill="#202020"/>
<path d="M82.92 75L88.67 67.56L71.19 59.34C70.3331 58.9384 69.3135 59.1595 68.7 59.88L62.7 66.94L63.64 66.62C64.1199 66.4472 64.6488 66.4723 65.11 66.69L82.92 75Z" fill="#353535"/>
<path d="M77.43 74L71.68 90.27C71.2032 91.7197 69.7141 92.5804 68.22 92.27L64.22 91.34L64.85 91.02C65.2524 90.8071 65.596 90.4979 65.85 90.12L77.43 74Z" fill="#353535"/>
<path d="M68.69 84.08C68.6977 84.3547 68.6093 84.6235 68.44 84.84L64.54 89.9C64.3448 90.1551 64.0116 90.2622 63.7043 90.1687C63.397 90.0751 63.18 89.8006 63.16 89.48L62.39 69.41C62.3687 68.8654 62.6313 68.3487 63.0839 68.045C63.5364 67.7412 64.1141 67.6939 64.61 67.92L68.19 69.54L68.69 84.08Z" fill="#353535"/>
</svg>

