/* XPM */
static char *render_ArnoldStandardShader_xpm[] = {
/* width height num_colors chars_per_pixel */
"    32    32      256            2",
/* colors */
"`` c #4c5264",
"`. c #848e94",
"`# c #6c7274",
"`a c #a4aaac",
"`b c #5c626c",
"`c c #7c8284",
"`d c #949eac",
"`e c #b4babc",
"`f c #545a5c",
"`g c #646a74",
"`h c #8c96a4",
"`i c #747a84",
"`j c #8c8a94",
"`k c #848a94",
"`l c #acb2b4",
"`m c #c4bebc",
"`n c #646274",
"`o c #848284",
"`p c #a4a2a4",
"`q c #5c5e64",
"`r c #54565c",
"`s c #949294",
"`t c #7c7a84",
"`u c #8c8e94",
"`v c #acaaac",
"`w c #9ca6ac",
"`x c #bcc2bc",
"`y c #4c5a6c",
"`z c #6c6e74",
"`A c #4c526c",
"`B c #747684",
"`C c #5c667c",
"`D c #7c8294",
"`E c #9c9ea4",
"`F c #94969c",
"`G c #6c7284",
"`H c #5c666c",
"`I c #bcbabc",
"`J c #747e84",
"`K c #b4b2b4",
"`L c #c4c2bc",
"`M c #64667c",
"`N c #848694",
"`O c #8c9294",
"`P c #acaeac",
"`Q c #545a6c",
"`R c #9ca2a4",
"`S c #949a9c",
"`T c #4c565c",
"`U c #7c868c",
"`V c #646e7c",
"`W c #64666c",
"`X c #84868c",
"`Y c #a4a6b4",
"`Z c #5c5e74",
"`0 c #7c7e84",
"`1 c #6c6e84",
"`2 c #bcbebc",
"`3 c #b4b6bc",
"`4 c #545e6c",
"`5 c #848e9c",
"`6 c #6c727c",
"`7 c #a4aab4",
"`8 c #5c6274",
".` c #7c828c",
".. c #545a64",
".# c #646a7c",
".a c #747a8c",
".b c #848a9c",
".c c #c4bec4",
".d c #84828c",
".e c #a4a6ac",
".f c #5c5e6c",
".g c #545664",
".h c #8c8e9c",
".i c #acaab4",
".j c #bcc2c4",
".k c #6c6e7c",
".l c #4c566c",
".m c #7c8694",
".n c #9c9eac",
".o c #9496a4",
".p c #6c7684",
".q c #5c6674",
".r c #747e8c",
".s c #b4b2bc",
".t c #c4c2c4",
".u c #8c929c",
".v c #acaeb4",
".w c #9ca2ac",
".x c #949aa4",
".y c #4c5664",
".z c #646674",
".A c #7c7e8c",
".B c #bcbec4",
".C c #545e74",
".D c #000000",
".E c #000000",
".F c #000000",
".G c #000000",
".H c #000000",
".I c #000000",
".J c #000000",
".K c #000000",
".L c #000000",
".M c #000000",
".N c #000000",
".O c #000000",
".P c #000000",
".Q c #000000",
".R c #000000",
".S c #000000",
".T c #000000",
".U c #000000",
".V c #000000",
".W c #000000",
".X c #000000",
".Y c #000000",
".Z c #000000",
".0 c #000000",
".1 c #000000",
".2 c #000000",
".3 c #000000",
".4 c #000000",
".5 c #000000",
".6 c #000000",
".7 c #000000",
".8 c #000000",
"#` c #000000",
"#. c #000000",
"## c #000000",
"#a c #000000",
"#b c #000000",
"#c c #000000",
"#d c #000000",
"#e c #000000",
"#f c #000000",
"#g c #000000",
"#h c #000000",
"#i c #000000",
"#j c #000000",
"#k c #000000",
"#l c #000000",
"#m c #000000",
"#n c #000000",
"#o c #000000",
"#p c #000000",
"#q c #000000",
"#r c #000000",
"#s c #000000",
"#t c #000000",
"#u c #000000",
"#v c #000000",
"#w c #000000",
"#x c #000000",
"#y c #000000",
"#z c #000000",
"#A c #000000",
"#B c #000000",
"#C c #000000",
"#D c #000000",
"#E c #000000",
"#F c #000000",
"#G c #000000",
"#H c #000000",
"#I c #000000",
"#J c #000000",
"#K c #000000",
"#L c #000000",
"#M c #000000",
"#N c #000000",
"#O c #000000",
"#P c #000000",
"#Q c #000000",
"#R c #000000",
"#S c #000000",
"#T c #000000",
"#U c #000000",
"#V c #000000",
"#W c #000000",
"#X c #000000",
"#Y c #000000",
"#Z c #000000",
"#0 c #000000",
"#1 c #000000",
"#2 c #000000",
"#3 c #000000",
"#4 c #000000",
"#5 c #000000",
"#6 c #000000",
"#7 c #000000",
"#8 c #000000",
"a` c #000000",
"a. c #000000",
"a# c #000000",
"aa c #000000",
"ab c #000000",
"ac c #000000",
"ad c #000000",
"ae c #000000",
"af c #000000",
"ag c #000000",
"ah c #000000",
"ai c #000000",
"aj c #000000",
"ak c #000000",
"al c #000000",
"am c #000000",
"an c #000000",
"ao c #000000",
"ap c #000000",
"aq c #000000",
"ar c #000000",
"as c #000000",
"at c #000000",
"au c #000000",
"av c #000000",
"aw c #000000",
"ax c #000000",
"ay c #000000",
"az c #000000",
"aA c #000000",
"aB c #000000",
"aC c #000000",
"aD c #000000",
"aE c #000000",
"aF c #000000",
"aG c #000000",
"aH c #000000",
"aI c #000000",
"aJ c #000000",
"aK c #000000",
"aL c #000000",
"aM c #000000",
"aN c #000000",
"aO c #000000",
"aP c #000000",
"aQ c #000000",
"aR c #000000",
"aS c #000000",
"aT c #000000",
"aU c #000000",
"aV c #000000",
"aW c #000000",
"aX c #000000",
"aY c #000000",
"aZ c #000000",
"a0 c #000000",
"a1 c #000000",
"a2 c #000000",
"a3 c #000000",
"a4 c #000000",
"a5 c #000000",
"a6 c #000000",
"a7 c #000000",
"a8 c #000000",
/* pixels */
".t`2.t`2.t`2.t.B`L.B`L.B`L.B.t`x.c.j`L`2.t`2.t`2.t.B.c`x.c`x.t`2",
"`x.c`2.t`2`m.j`m`2.t.B`2`3.v.e.w`E.w.e`K`e.B.c.t`2`L.j`m.j`m.B.t",
"`2.t`x.c`x.t`m`x.c`e.v`p.n.x.x.o.u.h`N.m.d.x.v`2`L`2.t`2.c`x.t`2",
".t`2.t`2.t`2.j`2`l.e.w.w.n.x.x.o.u`5`k.m.A`i`G.u`3.t`2.t`x.c.B`L",
"`x.c`x.c`x`m.B.i`Y`w`Y.w.n.x.o.o.u.h`k`N.r.r.p.#.p.e.t`2.c`x`m.j",
"`L.B`L`2.t`3`a`Y`Y.w.w.w.n.x.x.o.h`5`k.m`D.a`B.k`C`8`E`L.j.c.j.c",
".j`m.B.t`e.v`7`7.e`Y.w.n.n.x.o.u.u`5`N.m.A`i.p`1.q.C`Z.e`x.c`x.t",
".t`x`L.B.v`7`7.e`w.w.w.n`d.x.o.u.h`k`N.m.A.a`G`V`M`y.l.#`3.c.c`x",
".B`m.j.s`Y.i`Y`7`Y.w.n.n.x.o.o.u`5`k.m`D.r`B.p.#.q`Q.l.y`N`2`x.t",
"`L.B`I`7`7`7`Y`w.w.n.n`E.o`F.u.h`5`N`D.``i`B`G.#`8`Q.y.l`y.v.t`2",
".j`m`3.e`7`Y.e.w.w.n`d.x.o`h.u.h`k`N.`.A.a`G`V.#.C.l.l.l```X`2.t",
"`L`I`7`7`Y.e.w`Y.n`E`E.o.o.u.h`j`k.m.A.r.p`G`V`C`4`y`A``.l.q`e.c",
".j`I.e`7.e.w`p.n.n.x.x.o`h.u`u`k.m`D.A`i`G.k.#.q`Q`A.y.l.l.l`v.j",
"`m`3`Y`Y.w.w.w.n`d.x.o`F.u.h`k`N.`.`.a`B`G`V`M.C`Q.l.l``.l.y.u`L",
".j.v.w.e.w.n.n`d.x.o`F.u.h`5`N.m.`.r.a.p`V.#.q`Q.y.l.y``.l.y`N`2",
"`m.v.w.w.w`E`E.x.x`F.u.u`5`k.m.`.A.r`B`6.#.z.C`y.y`A.l.y`A.y.`.B",
"`x.i.n.w`E`E.o.x.o.u.u.h`k`k.`.`.r`i`G`V.#`8`Q.l``.l.y.l.y.y.`.t",
".c`P`E.x.n.x.o.o.u.u.h`.`k.m.`.A`i.p`6`V.q.C.g.l.y``.l``.l.y.``m",
"`x.v.n.x`E`F`F.u`s.h.h`k`N.`.A`i.p`6.#`M`8`Q.y.l.y.l.y.g.l.g`h`2",
".t`3`F.x.o.o.u.u.h`5`k.m.`.A`i.p`G.k.#`8`4.l.y`A.g.l.y.y.l.g`P.t",
"`2`I`S`s.u.u.h.h`k`N`X`U.A.r`i`G`6`g`8`4`Q.y.y.y.l.y`Q.y.y`8`2`2",
".t.j.e.u`s.h`.`j`k`N.`.``J`i`G.k.#.q`8`Q.y.l.l.y.y.g.l.y.g`N.B`m",
"`2.t`3`u`j`k`k`N`N.`.A`J`B`G`6`g.q`8`Q.y``.y.g.l.g``.y``..`K.B`L",
".t`2.t`R`N`k`X.`.`.A`i`i.p`6`g.z.q`Q...y.g.y.y.g.l.g.y.g`.`m.B.t",
".c`x`m`I`u.d.A`0.A`i`B`6.k`z.q`b`Q`y``.y.g.l.g``.y.g.g.k`I`2`m`x",
"`x.c.j.B`K`c`t`i`B`B`6`z`g`8`b`Q.y.g.y.y.g.y.g.y.y.y`b`a.B.t`x.c",
".t.j`m.t`2`v`t`6`6`z`g.z`H.f...y.g.y.g.y.y.g.y.g.g`n`R`L.t`2.c`x",
".t`2.B`L`2.j`v`t`g.z`b`b`Q.y.g.y.g```T.g`r``.g```#`v`x`2.t.B.t`2",
"`x.t.t`2.t`2.t`3`u`q..`T.g`T.g.y`r.y`r```T`r`f`j`3`2.t`2.t`2`L.B",
".t`2.c.j.c.j`L`2`2.v`X`n`T.g`T`r.y`r```r`W`X.v`2`L`L.B`L.B`L.B`L",
".t`2`L`x`m.j.c`L`m.t`2`I`v`s.``0`0.d`F`v`I`2.t`2`L.B`m.j`m.j`m.j",
".B`L.B.t.B`L.B`2.j`2.c`2`x`m.t`m.j`m`x.t`2.t`2.t.B`L.j`m.j`m.j`m"
};
