<?xml version="1.0" encoding="utf-8"?>
<!-- Generator: Adobe Illustrator 19.2.1, SVG Export Plug-In . SVG Version: 6.00 Build 0)  -->
<svg version="1.2" baseProfile="tiny" id="Layer_1" xmlns="http://www.w3.org/2000/svg" xmlns:xlink="http://www.w3.org/1999/xlink"
	 x="0px" y="0px" viewBox="0 0 240 240" xml:space="preserve">
<rect fill-rule="evenodd" fill="none" width="240" height="240"/>
<g>
	<g>
		<rect x="16" y="54.4" fill-rule="evenodd" fill="#BFB23A" width="169.1" height="169.1"/>
		<path fill="#1D1D1D" d="M181.1,58.4v161.1H20V58.4H181.1 M189.1,50.4H12v177.1h177.1V50.4L189.1,50.4z"/>
	</g>
</g>
<g>
	<path fill-rule="evenodd" fill="#1D1D1D" d="M17.5,111.3h55.4v55.4H17.5V111.3z"/>
	<path fill-rule="evenodd" fill="#1D1D1D" d="M72.8,55.9h55.4v55.4H72.8V55.9z"/>
	<path fill-rule="evenodd" fill="#1D1D1D" d="M72.8,166.7h55.4V222H72.8V166.7z"/>
	<path fill-rule="evenodd" fill="#1D1D1D" d="M128.2,111.3h55.4v55.4h-55.4V111.3z"/>
</g>
<g>
	<path fill-rule="evenodd" fill="#BDBDBD" d="M189.1,99.3c-2.2,0-4-1.8-4-4v-0.2c0-0.2,0-0.4,0-0.6v-9.9c0-0.2,0-0.4,0-0.6V65.4
		c0-1.6,1-3.1,2.5-3.7c0.5-0.2,1-0.3,1.5-0.3c1,0,2.1,0.4,2.8,1.2l9.1,9.1c2.9-4,4.4-8.8,4.4-13.8c0-13.1-10.7-23.8-23.8-23.8
		s-23.8,10.7-23.8,23.8c0,10.7,7.2,20.1,17.5,23c1.7,0.5,2.9,2.1,2.9,3.9v9.9c0,1.2-0.5,2.3-1.5,3.1c-0.7,0.6-1.6,0.9-2.5,0.9
		c-0.3,0-0.5,0-0.8-0.1c-19.2-3.9-33.2-20.9-33.2-40.6c0-22.8,18.6-41.4,41.4-41.4S223,35,223,57.8c0,9.7-3.3,18.9-9.5,26.3l8.3,8.3
		c1.1,1.1,1.5,2.9,0.9,4.4s-2.1,2.5-3.7,2.5H189.1z"/>
	<path fill="#1D1D1D" d="M181.6,20.4c20.7,0,37.4,16.7,37.4,37.4c0,10.3-4.2,19.7-11,26.5l11,11h-29.9v-0.8c0,0,0,0,0,0v-9.9
		c0,0,0,0,0,0V65.4l12.2,12.2c5.1-5,8.2-12,8.2-19.7c0-15.4-12.5-27.8-27.8-27.8c-15.4,0-27.8,12.5-27.8,27.8
		c0,12.8,8.6,23.6,20.4,26.8v9.9c-17.1-3.4-30-18.5-30-36.7C144.2,37.2,161,20.4,181.6,20.4 M181.6,12.4c-25,0-45.4,20.4-45.4,45.4
		c0,21.5,15.3,40.3,36.4,44.5c0.5,0.1,1.1,0.2,1.6,0.2c1.8,0,3.6-0.6,5.1-1.8c1-0.8,1.7-1.8,2.2-2.9c1,3.2,4.1,5.5,7.6,5.5H219
		c3.2,0,6.2-1.9,7.4-4.9c1.2-3,0.6-6.4-1.7-8.7l-5.8-5.8c5.3-7.6,8.2-16.6,8.2-26C227,32.8,206.7,12.4,181.6,12.4L181.6,12.4z
		 M181.1,80.6c-1-1.7-2.7-3.1-4.8-3.7c-8.6-2.4-14.5-10.2-14.5-19.1c0-10.9,8.9-19.8,19.8-19.8c10.9,0,19.8,8.9,19.8,19.8
		c0,2.5-0.5,4.9-1.3,7.2l-5.3-5.3c-1.5-1.5-3.6-2.3-5.7-2.3c-1,0-2.1,0.2-3.1,0.6c-3,1.2-4.9,4.2-4.9,7.4V80.6L181.1,80.6z"/>
</g>
<g>
</g>
<g>
</g>
<g>
</g>
<g>
</g>
<g>
</g>
<g>
</g>
</svg>
